Coordinates
version=1
nRows=24
nColumns=24
inDegrees=yes

Units are S.I. units (second, meters, Newtons, ...)
Angles are in degrees.

endheader
time	pelvis_tilt	pelvis_list	pelvis_rotation	pelvis_tx	pelvis_ty	pelvis_tz	hip_flexion_r	hip_adduction_r	hip_rotation_r	knee_angle_r	ankle_angle_r	subtalar_angle_r	mtp_angle_r	hip_flexion_l	hip_adduction_l	hip_rotation_l	knee_angle_l	ankle_angle_l	subtalar_angle_l	mtp_angle_l	lumbar_extension	lumbar_bending	lumbar_rotation
      1.28300000	     -5.84134856	      1.97084089	     -6.63514881	      0.29890301	      1.06501234	      0.33077524	     23.84544324	     -4.40008176	     -4.26124800	    -70.15475495	     -0.02150168	    -10.14307154	      4.41056636	     18.13236316	      3.15606043	     -1.54143471	    -20.81029657	     11.28165705	      1.52594327	     -2.81409219	    -10.57571414	     -4.37195102	      0.65683850
      1.28716667	     -5.80453208	      1.86700822	     -6.52823143	      0.30399946	      1.06615088	      0.33055992	     24.24101526	     -4.28167395	     -4.44791193	    -69.65547498	      0.28564791	     -9.83781123	      4.37394924	     17.57394216	      3.12003757	     -1.43828702	    -20.37671418	     11.31853535	      1.59569882	     -2.81052382	    -10.64553721	     -4.21723499	      0.44468418
      1.29133333	     -5.75120750	      1.76659256	     -6.40823722	      0.30909806	      1.06728875	      0.33032216	     24.60320973	     -4.17567761	     -4.64953945	    -69.10415094	      0.60335640	     -9.49609691	      4.33587586	     16.99426910	      3.09258307	     -1.32519629	    -19.92836913	     11.32406001	      1.65914925	     -2.80559365	    -10.73209557	     -4.06414567	      0.18301397
      1.29550000	     -5.70325483	      1.65224756	     -6.28260810	      0.31418423	      1.06837653	      0.33008060	     24.95484532	     -4.05212423	     -4.85567575	    -68.49721162	      0.92079124	     -9.09961906	      4.32219826	     16.42578175	      3.04661087	     -1.20972853	    -19.49579657	     11.37893416	      1.73466970	     -2.79989836	    -10.81210559	     -3.88910067	     -0.02073783
      1.29966667	     -5.68272851	      1.53012672	     -6.14821869	      0.31926205	      1.06937739	      0.32985112	     25.32058923	     -3.91355456	     -5.06560035	    -67.83842607	      1.23579226	     -8.68657289	      4.32316779	     15.89141696	      2.98610343	     -1.08932561	    -19.06974650	     11.41339336	      1.82499065	     -2.79493675	    -10.86314075	     -3.71950271	     -0.21265021
      1.30383333	     -5.65207760	      1.43434059	     -6.00716565	      0.32434227	      1.07032808	      0.32961037	     25.67097924	     -3.81069317	     -5.27747232	    -67.14930820	      1.57120503	     -8.22862364	      4.33312614	     15.34554163	      2.95476997	     -0.96949771	    -18.63370358	     11.45095119	      1.89649745	     -2.78954231	    -10.92193461	     -3.56313296	     -0.44585067
      1.30800000	     -5.59460187	      1.35180581	     -5.86033556	      0.32940263	      1.07128193	      0.32935848	     25.98313387	     -3.72679845	     -5.48733110	    -66.41704294	      1.91121482	     -7.75801724	      4.35421119	     14.76436115	      2.94240025	     -0.82858046	    -18.17219468	     11.44852651	      1.94580001	     -2.78159305	    -11.01275819	     -3.41011655	     -0.74584799
      1.31216667	     -5.56608293	      1.25888801	     -5.71363477	      0.33447359	      1.07212988	      0.32911779	     26.31181867	     -3.62530158	     -5.69676975	    -65.63886098	      2.23772272	     -7.28111172	      4.38191253	     14.22365562	      2.90986153	     -0.69970274	    -17.73889022	     11.50420137	      2.01531204	     -2.77382379	    -11.06436439	     -3.25032310	     -0.95391511
      1.31633333	     -5.52107587	      1.16978936	     -5.55894603	      0.33952619	      1.07297614	      0.32888073	     26.60842584	     -3.52799338	     -5.90651390	    -64.81229297	      2.56283796	     -6.80890066	      4.42366493	     13.66225696	      2.88178289	     -0.55752886	    -17.28851612	     11.50817744	      2.07491230	     -2.76476212	    -11.14148999	     -3.10172560	     -1.21508956
      1.32050000	     -5.52305863	      1.09021144	     -5.40451508	      0.34459947	      1.07365484	      0.32864814	     26.94824468	     -3.43596116	     -6.11151479	    -63.95583765	      2.88223081	     -6.32603078	      4.46571525	     13.16096022	      2.85534343	     -0.42507419	    -16.86254661	     11.57005551	      2.14000803	     -2.75620126	    -11.14933340	     -2.95649895	     -1.42374197
      1.32466667	     -5.50451349	      0.99631520	     -5.24505104	      0.34965645	      1.07435140	      0.32842499	     27.24442910	     -3.32600342	     -6.31809821	    -63.03889096	      3.17218118	     -5.88405248	      4.50080769	     12.64241561	      2.80996137	     -0.30621461	    -16.44379782	     11.58466021	      2.22718565	     -2.75095308	    -11.19178623	     -2.80667217	     -1.59125538
      1.32883333	     -5.48693721	      0.95051113	     -5.09537248	      0.35471278	      1.07494049	      0.32821563	     27.55079750	     -3.26781774	     -6.50153462	    -62.12103934	      3.49996768	     -5.40127102	      4.55536766	     12.11453706	      2.81779249	     -0.16338450	    -15.99395666	     11.64440899	      2.26839120	     -2.74188795	    -11.22312243	     -2.69172057	     -1.87655986
      1.33300000	     -5.48504377	      0.89350125	     -4.94269398	      0.35977262	      1.07546689	      0.32801755	     27.85406030	     -3.19106701	     -6.68192885	    -61.14914584	      3.78925846	     -4.97759732	      4.61150021	     11.61084795	      2.80704252	     -0.02673393	    -15.56132944	     11.67902419	      2.32079136	     -2.73347852	    -11.23607496	     -2.57361502	     -2.10286105
      1.33716667	     -5.48636079	      0.84705844	     -4.79285972	      0.36481937	      1.07591818	      0.32783781	     28.15316452	     -3.12215749	     -6.85234648	    -60.14671575	      4.07514799	     -4.56824790	      4.67651370	     11.11429158	      2.80329231	      0.10563830	    -15.13182917	     11.71319287	      2.36962596	     -2.72371832	    -11.24866977	     -2.46979566	     -2.33647660
      1.34133333	     -5.50048650	      0.81025741	     -4.64726237	      0.36986987	      1.07628312	      0.32767068	     28.45683324	     -3.05758989	     -7.00814557	    -59.11233549	      4.35096900	     -4.18128724	      4.74872947	     10.63460274	      2.80520926	      0.23352076	    -14.70933097	     11.75015919	      2.41969756	     -2.71283545	    -11.24292459	     -2.37605109	     -2.55999051
      1.34550000	     -5.51587555	      0.77000265	     -4.50276413	      0.37492630	      1.07661391	      0.32751951	     28.74378903	     -2.98644372	     -7.16004551	    -58.03077377	      4.60295857	     -3.83240928	      4.81491191	     10.15794365	      2.79931160	      0.35528918	    -14.29149217	     11.80362979	      2.47319492	     -2.70268559	    -11.23100478	     -2.27780950	     -2.75573725
      1.34966667	     -5.55734449	      0.73638903	     -4.36797813	      0.37998021	      1.07682708	      0.32740479	     29.04906905	     -2.90864740	     -7.28694228	    -56.91627433	      4.84014995	     -3.53045413	      4.85754223	      9.71930272	      2.79113139	      0.44630957	    -13.89399498	     11.83020124	      2.55444792	     -2.69653639	    -11.18851925	     -2.19520584	     -2.88999157
      1.35383333	     -5.56271462	      0.73170134	     -4.23669576	      0.38501245	      1.07702277	      0.32727934	     29.31504633	     -2.86942266	     -7.40278199	    -55.78995459	      5.09562359	     -3.20431610	      4.93469378	      9.23393090	      2.82131044	      0.57983131	    -13.47491719	     11.90757588	      2.57991428	     -2.68443079	    -11.19332098	     -2.13857282	     -3.15349166
      1.35800000	     -5.59745937	      0.72023271	     -4.11167669	      0.39005968	      1.07713866	      0.32719044	     29.59190662	     -2.80926578	     -7.50089393	    -54.61233291	      5.31787397	     -2.94083365	      5.01279216	      8.78412421	      2.83516685	      0.69559066	    -13.06700367	     11.95675841	      2.61887325	     -2.67252273	    -11.15844295	     -2.07649629	     -3.34286484
      1.36216667	     -5.65727679	      0.71111731	     -3.99901791	      0.39510942	      1.07715300	      0.32714081	     29.88289835	     -2.73788176	     -7.57370916	    -53.39760692	      5.52013435	     -2.73468110	      5.05587855	      8.37238868	      2.84139560	      0.76556737	    -12.68431809	     11.99914948	      2.69379849	     -2.66562272	    -11.09065302	     -2.02444024	     -3.45131585
      1.36633333	     -5.69438477	      0.73186364	     -3.88953326	      0.40013724	      1.07712088	      0.32709606	     30.14840557	     -2.70110828	     -7.62998034	    -52.17312059	      5.73768015	     -2.51208641	      5.14879713	      7.92685621	      2.88559914	      0.89022440	    -12.27773567	     12.06574228	      2.71139347	     -2.65121668	    -11.06219637	     -1.99930959	     -3.68508950
      1.37050000	     -5.76582002	      0.74437644	     -3.79621254	      0.40518457	      1.07699816	      0.32709076	     30.43031619	     -2.63898500	     -7.66164788	    -50.89686533	      5.91795008	     -2.36099669	      5.18929619	      7.53124992	      2.90888772	      0.94464979	    -11.90404125	     12.12802646	      2.78089808	     -2.64423424	    -10.97201366	     -1.97815239	     -3.77070178
      1.37466667	     -5.81903475	      0.76105621	     -3.70666572	      0.41021841	      1.07685324	      0.32709413	     30.67875123	     -2.58025782	     -7.67982599	    -49.58822916	      6.09760102	     -2.21719294	      5.23218876	      7.11445381	      2.93715597	      1.01413612	    -11.52718450	     12.20061883	      2.84099118	     -2.63673874	    -10.91672351	     -1.95674912	     -3.89236853
      1.37883333	     -5.89684998	      0.79825249	     -3.62895461	      0.41525286	      1.07658578	      0.32713236	     30.94816532	     -2.53289447	     -7.67180206	    -48.26027980	      6.27218705	     -2.10741096	      5.27360125	      6.72460185	      2.98312559	      1.07764281	    -11.14952222	     12.27657496	      2.89271244	     -2.62914535	    -10.83263205	     -1.96188085	     -4.01517149
